<svg width="38" height="38" viewBox="0 0 38 38" fill="none" xmlns="http://www.w3.org/2000/svg">
<path d="M23.6285 3.15063H14.1768C13.3068 3.15063 12.6016 3.85591 12.6016 4.72591V7.87646C12.6016 8.74646 13.3068 9.45173 14.1768 9.45173H23.6285C24.4985 9.45173 25.2038 8.74646 25.2038 7.87646V4.72591C25.2038 3.85591 24.4985 3.15063 23.6285 3.15063Z" stroke="#F19200" stroke-width="3.15055" stroke-linecap="round" stroke-linejoin="round"/>
<path d="M25.2041 6.30115H28.3546C29.1902 6.30115 29.9916 6.63308 30.5824 7.22392C31.1732 7.81476 31.5052 8.61612 31.5052 9.4517V31.5055C31.5052 32.3411 31.1732 33.1425 30.5824 33.7333C29.9916 34.3242 29.1902 34.6561 28.3546 34.6561H9.45133C8.61575 34.6561 7.8144 34.3242 7.22356 33.7333C6.63271 33.1425 6.30078 32.3411 6.30078 31.5055V9.4517C6.30078 8.61612 6.63271 7.81476 7.22356 7.22392C7.8144 6.63308 8.61575 6.30115 9.45133 6.30115H12.6019" stroke="#F19200" stroke-width="3.15055" stroke-linecap="round" stroke-linejoin="round"/>
</svg>
