<svg width="38" height="38" viewBox="0 0 38 38" fill="none" xmlns="http://www.w3.org/2000/svg">
<path d="M23.6288 3.15039H9.45133C8.61575 3.15039 7.8144 3.48232 7.22356 4.07317C6.63271 4.66401 6.30078 5.46536 6.30078 6.30094V31.5053C6.30078 32.3409 6.63271 33.1423 7.22356 33.7331C7.8144 34.324 8.61575 34.6559 9.45133 34.6559H28.3546C29.1902 34.6559 29.9916 34.324 30.5824 33.7331C31.1732 33.1423 31.5052 32.3409 31.5052 31.5053V11.0268L23.6288 3.15039Z" stroke="#F19200" stroke-width="3.15055" stroke-linecap="round" stroke-linejoin="round"/>
<path d="M22.0547 3.15045V9.45155C22.0547 10.2871 22.3866 11.0885 22.9775 11.6793C23.5683 12.2702 24.3697 12.6021 25.2052 12.6021H31.5063" stroke="#F19200" stroke-width="3.15055" stroke-linecap="round" stroke-linejoin="round"/>
<path d="M14.1777 23.6291L17.3283 26.7796L23.6294 20.4785" stroke="#F19200" stroke-width="3.15055" stroke-linecap="round" stroke-linejoin="round"/>
</svg>
