<svg width="38" height="38" viewBox="0 0 38 38" fill="none" xmlns="http://www.w3.org/2000/svg">
<path d="M23.6274 33.0808V20.4786C23.6274 20.0608 23.4615 19.6601 23.166 19.3647C22.8706 19.0693 22.4699 18.9033 22.0522 18.9033H15.7511C15.3333 18.9033 14.9326 19.0693 14.6372 19.3647C14.3417 19.6601 14.1758 20.0608 14.1758 20.4786V33.0808" stroke="#F19200" stroke-width="3.15055" stroke-linecap="round" stroke-linejoin="round"/>
<path d="M4.72656 15.7527C4.72645 15.2944 4.82633 14.8416 5.01923 14.4259C5.21213 14.0102 5.4934 13.6415 5.84343 13.3457L16.8704 3.89406C17.439 3.41346 18.1595 3.14978 18.904 3.14978C19.6486 3.14978 20.3691 3.41346 20.9377 3.89406L31.9646 13.3457C32.3147 13.6415 32.5959 14.0102 32.7888 14.4259C32.9817 14.8416 33.0816 15.2944 33.0815 15.7527V29.9302C33.0815 30.7658 32.7496 31.5671 32.1587 32.158C31.5679 32.7488 30.7665 33.0808 29.931 33.0808H7.87711C7.04153 33.0808 6.24018 32.7488 5.64934 32.158C5.05849 31.5671 4.72656 30.7658 4.72656 29.9302V15.7527Z" stroke="#F19200" stroke-width="3.15055" stroke-linecap="round" stroke-linejoin="round"/>
</svg>
