<svg width="38" height="38" viewBox="0 0 38 38" fill="none" xmlns="http://www.w3.org/2000/svg">
<path d="M33.554 24.1017C33.9065 24.453 34.1861 24.8703 34.3769 25.3299C34.5677 25.7894 34.666 26.2821 34.666 26.7797C34.666 27.2773 34.5677 27.77 34.3769 28.2295C34.1861 28.6891 33.9065 29.1064 33.554 29.4577L29.4583 33.5534C29.1071 33.9058 28.6897 34.1855 28.2301 34.3763C27.7706 34.5671 27.2779 34.6654 26.7803 34.6654C26.2827 34.6654 25.79 34.5671 25.3305 34.3763C24.8709 34.1855 24.4536 33.9058 24.1024 33.5534L4.25389 13.7049C3.5459 12.9935 3.14844 12.0307 3.14844 11.027C3.14844 10.0233 3.5459 9.06043 4.25389 8.349L8.34961 4.25328C9.06104 3.54529 10.0239 3.14783 11.0276 3.14783C12.0313 3.14783 12.9941 3.54529 13.7055 4.25328L33.554 24.1017Z" stroke="#F19200" stroke-width="3.15055" stroke-linecap="round" stroke-linejoin="round"/>
<path d="M22.8418 19.691L25.9923 16.5404" stroke="#F19200" stroke-width="3.15055" stroke-linecap="round" stroke-linejoin="round"/>
<path d="M18.1172 14.9651L21.2677 11.8146" stroke="#F19200" stroke-width="3.15055" stroke-linecap="round" stroke-linejoin="round"/>
<path d="M13.3906 10.2394L16.5412 7.08881" stroke="#F19200" stroke-width="3.15055" stroke-linecap="round" stroke-linejoin="round"/>
<path d="M27.5664 24.4168L30.717 21.2662" stroke="#F19200" stroke-width="3.15055" stroke-linecap="round" stroke-linejoin="round"/>
</svg>
