<svg width="38" height="38" viewBox="0 0 38 38" fill="none" xmlns="http://www.w3.org/2000/svg">
<path d="M9.45117 34.6561V6.30118C9.45117 5.46561 9.7831 4.66425 10.3739 4.07341C10.9648 3.48257 11.7661 3.15063 12.6017 3.15063H25.2039C26.0395 3.15063 26.8408 3.48257 27.4317 4.07341C28.0225 4.66425 28.3545 5.46561 28.3545 6.30118V34.6561H9.45117Z" stroke="#F19200" stroke-width="3.15055" stroke-linecap="round" stroke-linejoin="round"/>
<path d="M9.45149 18.9033H6.30094C5.46536 18.9033 4.66401 19.2353 4.07316 19.8261C3.48232 20.4169 3.15039 21.2183 3.15039 22.0539V31.5055C3.15039 32.3411 3.48232 33.1424 4.07316 33.7333C4.66401 34.3241 5.46536 34.6561 6.30094 34.6561H9.45149" stroke="#F19200" stroke-width="3.15055" stroke-linecap="round" stroke-linejoin="round"/>
<path d="M28.3555 14.1775H31.506C32.3416 14.1775 33.1429 14.5094 33.7338 15.1003C34.3246 15.6911 34.6566 16.4925 34.6566 17.328V31.5055C34.6566 32.3411 34.3246 33.1424 33.7338 33.7333C33.1429 34.3241 32.3416 34.6561 31.506 34.6561H28.3555" stroke="#F19200" stroke-width="3.15055" stroke-linecap="round" stroke-linejoin="round"/>
<path d="M15.7539 9.45166H22.055" stroke="#F19200" stroke-width="3.15055" stroke-linecap="round" stroke-linejoin="round"/>
<path d="M15.7539 15.7528H22.055" stroke="#F19200" stroke-width="3.15055" stroke-linecap="round" stroke-linejoin="round"/>
<path d="M15.7539 22.0538H22.055" stroke="#F19200" stroke-width="3.15055" stroke-linecap="round" stroke-linejoin="round"/>
<path d="M15.7539 28.355H22.055" stroke="#F19200" stroke-width="3.15055" stroke-linecap="round" stroke-linejoin="round"/>
</svg>
