<svg width="38" height="38" viewBox="0 0 38 38" fill="none" xmlns="http://www.w3.org/2000/svg">
<path d="M22.049 6.30109C22.6173 6.30108 23.1751 6.45481 23.6632 6.746C24.1513 7.03719 24.5515 7.45499 24.8214 7.95513L25.587 9.37287C25.857 9.87301 26.2572 10.2908 26.7453 10.582C27.2334 10.8732 27.7912 11.0269 28.3595 11.0269H31.5053C32.3409 11.0269 33.1423 11.3588 33.7331 11.9497C34.324 12.5405 34.6559 13.3419 34.6559 14.1775V28.3549C34.6559 29.1905 34.324 29.9919 33.7331 30.5827C33.1423 31.1735 32.3409 31.5055 31.5053 31.5055H6.30094C5.46536 31.5055 4.66401 31.1735 4.07317 30.5827C3.48232 29.9919 3.15039 29.1905 3.15039 28.3549V14.1775C3.15039 13.3419 3.48232 12.5405 4.07317 11.9497C4.66401 11.3588 5.46536 11.0269 6.30094 11.0269H9.44676C10.0145 11.0269 10.5717 10.8735 11.0595 10.5829C11.5473 10.2923 11.9474 9.87534 12.2177 9.37602L12.988 7.95197C13.2582 7.45266 13.6584 7.03565 14.1462 6.74505C14.6339 6.45445 15.1911 6.30106 15.7589 6.30109H22.049Z" stroke="#F19200" stroke-width="3.15055" stroke-linecap="round" stroke-linejoin="round"/>
<path d="M18.9036 25.2043C21.5136 25.2043 23.6294 23.0885 23.6294 20.4785C23.6294 17.8685 21.5136 15.7527 18.9036 15.7527C16.2936 15.7527 14.1777 17.8685 14.1777 20.4785C14.1777 23.0885 16.2936 25.2043 18.9036 25.2043Z" stroke="#F19200" stroke-width="3.15055" stroke-linecap="round" stroke-linejoin="round"/>
</svg>
