<svg width="38" height="38" viewBox="0 0 38 38" fill="none" xmlns="http://www.w3.org/2000/svg">
<path d="M31.5052 15.7526C31.5052 23.618 22.7797 31.8094 19.8497 34.3393C19.5768 34.5446 19.2445 34.6555 18.903 34.6555C18.5615 34.6555 18.2292 34.5446 17.9562 34.3393C15.0262 31.8094 6.30078 23.618 6.30078 15.7526C6.30078 12.4103 7.62851 9.20492 9.99188 6.84155C12.3552 4.47818 15.5607 3.15045 18.903 3.15045C22.2453 3.15045 25.4507 4.47818 27.8141 6.84155C30.1774 9.20492 31.5052 12.4103 31.5052 15.7526Z" stroke="#F19200" stroke-width="3.15055" stroke-linecap="round" stroke-linejoin="round"/>
<path d="M18.9036 20.4785C21.5136 20.4785 23.6294 18.3627 23.6294 15.7527C23.6294 13.1427 21.5136 11.0269 18.9036 11.0269C16.2936 11.0269 14.1777 13.1427 14.1777 15.7527C14.1777 18.3627 16.2936 20.4785 18.9036 20.4785Z" stroke="#F19200" stroke-width="3.15055" stroke-linecap="round" stroke-linejoin="round"/>
</svg>
